<svg version="1.1" id="Layer_1" xmlns="http://www.w3.org/2000/svg" xmlns:xlink="http://www.w3.org/1999/xlink" x="0px" y="0px"
	 width="100%" viewBox="0 0 500 500" enable-background="new 0 0 500 500" xml:space="preserve">
<path fill="#000000" opacity="1.000000" stroke="none" 
	d="
M292.000000,501.000000 
	C194.666687,501.000000 97.833382,501.000000 1.000052,501.000000 
	C1.000035,334.333405 1.000035,167.666794 1.000017,1.000141 
	C167.666565,1.000094 334.333130,1.000094 500.999756,1.000047 
	C500.999847,167.666519 500.999847,334.333038 500.999939,500.999786 
	C431.500000,501.000000 362.000000,501.000000 292.000000,501.000000 
M133.393066,197.097626 
	C133.072495,197.557236 132.751923,198.016846 132.419662,198.630920 
	C132.419662,198.630920 132.351685,198.491745 131.760483,198.721878 
	C128.396896,202.432510 125.033318,206.143143 121.201859,209.982224 
	C120.912430,210.351303 120.623009,210.720383 119.771568,211.405655 
	C119.109108,212.217560 118.446648,213.029465 117.889885,213.878922 
	C117.889885,213.878922 117.885399,213.766846 117.266785,213.973358 
	C116.212219,215.332932 115.157654,216.692490 114.027992,218.021835 
	C114.027992,218.021835 114.050171,218.099701 113.537827,218.232330 
	C113.360901,218.527756 113.183975,218.823166 112.414680,219.405029 
	C108.705383,223.338486 104.996086,227.271927 101.155159,231.344971 
	C97.863434,227.828156 95.042442,224.814255 92.911903,221.492737 
	C100.761093,217.163651 107.063339,211.562958 108.554710,202.123291 
	C110.153427,192.004242 107.584869,183.040253 99.434494,176.722290 
	C90.777740,170.011795 81.002548,168.721695 70.912132,173.890030 
	C53.308220,182.906738 51.894062,205.531158 68.281281,219.608810 
	C79.008171,231.261948 89.735062,242.915085 99.466820,253.487167 
	C108.605423,245.063568 117.248856,237.096405 125.956123,230.039108 
	C126.014290,235.360184 126.072449,240.681274 126.001221,246.828674 
	C126.042732,248.219101 126.084251,249.609528 125.987404,251.928253 
	C125.987404,259.875336 125.987404,267.822388 125.987404,275.960052 
	C130.470062,275.960052 134.427063,276.202393 138.320343,275.811035 
	C139.474121,275.695038 141.326202,273.824707 141.364563,272.707031 
	C141.641541,264.636627 141.544174,256.553009 141.547806,248.473587 
	C141.554916,232.666702 141.550552,216.859833 141.550888,201.052948 
	C141.550964,197.565933 141.550903,194.078918 141.550903,190.591904 
	C141.017532,190.488571 140.484161,190.385254 139.950775,190.281921 
	C138.571899,191.811371 137.193008,193.340805 135.919205,194.930313 
	C135.919205,194.930313 135.867218,194.821014 135.320465,195.050095 
	C134.867126,195.686127 134.413788,196.322174 133.999390,197.000000 
	C133.999390,197.000000 133.957626,196.960114 133.393066,197.097626 
M73.993851,235.292007 
	C72.649452,233.953201 71.305061,232.614395 69.393311,230.877060 
	C66.848274,228.953674 64.303238,227.030289 61.790260,224.763000 
	C61.695995,224.867126 61.601734,224.971268 61.306000,225.705139 
	C61.317619,226.144928 61.329239,226.584717 61.063847,227.921616 
	C61.035267,242.658737 61.008812,257.395844 60.975708,272.132965 
	C60.971004,274.228546 60.874500,276.376221 64.783562,275.788422 
	C65.512367,275.780396 66.241180,275.772339 67.727211,276.003113 
	C73.899162,278.235626 76.706711,276.404083 76.735184,270.036560 
	C76.777283,260.621033 76.908546,251.200912 76.640762,241.793045 
	C76.584389,239.812286 74.965988,237.876007 74.004730,235.992874 
	C74.004730,235.992874 74.087006,235.942184 73.993851,235.292007 
M201.807373,240.934738 
	C203.826736,238.835541 205.846100,236.736328 208.049362,235.404831 
	C210.474121,240.475601 212.707840,245.650757 215.399048,250.575928 
	C216.889694,253.303955 217.283081,255.430664 215.614594,258.310547 
	C212.423630,263.818268 209.718491,269.607452 206.930283,275.048462 
	C218.691086,279.931793 219.695419,269.944702 223.547607,263.011139 
	C226.559082,270.916382 228.478363,279.475616 239.795990,275.136108 
	C239.559494,274.285309 239.449036,273.131775 238.941696,272.192688 
	C236.661911,267.972870 234.422806,263.717438 231.870224,259.662903 
	C229.733521,256.268982 229.685730,253.140015 231.652496,249.706375 
	C234.531601,244.679977 237.236496,239.553787 240.008606,234.482941 
	C232.343109,231.492218 229.002121,232.800079 226.017319,240.026489 
	C225.314957,241.726913 224.563461,243.407059 223.540909,245.777237 
	C221.681580,241.594345 221.043716,237.119614 218.504959,235.306396 
	C215.987564,233.508469 211.555130,234.391861 207.563431,233.487762 
	C206.851547,232.542465 206.299591,231.389374 205.395630,230.693619 
	C203.293915,229.075989 201.073898,226.618591 198.804550,226.508606 
	C196.780731,226.410507 193.418564,228.631302 192.835480,230.508545 
	C192.107559,232.852051 193.477264,235.931992 194.233170,238.611649 
	C194.556259,239.756973 195.616684,240.694290 195.497818,241.953354 
	C195.152405,242.277390 194.506638,242.599960 194.505066,242.925659 
	C194.452591,253.822632 194.461563,264.719910 194.461563,275.890137 
	C197.206314,275.890137 199.557953,276.154785 201.799286,275.772583 
	C202.836700,275.595642 204.456894,274.156860 204.456024,273.291534 
	C204.446854,264.202179 204.259430,255.108902 203.859268,246.028244 
	C203.792999,244.524292 202.465103,243.075928 201.807373,240.934738 
M442.603638,262.505005 
	C437.094879,265.446716 435.736359,268.896515 438.404999,273.167084 
	C440.440369,276.424194 446.065247,277.655853 449.001770,275.487396 
	C452.848022,272.647156 452.822357,267.503418 448.968964,263.302216 
	C448.429199,262.713745 448.012024,262.012848 448.087524,261.605042 
	C448.565369,255.261780 449.043213,248.918533 449.531219,242.439926 
	C452.370514,242.227661 455.099854,242.023621 458.201355,241.791763 
	C458.201355,238.919189 458.201355,236.256760 458.201355,233.536438 
	C448.568634,233.536438 439.450836,233.536438 430.371155,233.536438 
	C428.463806,241.062103 428.463806,241.062103 439.148895,243.126022 
	C439.148895,246.526779 438.991821,250.007233 439.199860,253.465729 
	C439.359070,256.113312 439.979645,258.733154 440.369019,261.620850 
	C440.369019,261.620850 440.625763,261.625885 440.625763,261.625885 
	C440.625763,261.625885 440.626617,261.367950 441.935211,261.416656 
	C442.340668,261.578339 442.746124,261.740021 442.603638,262.505005 
M323.398285,276.359711 
	C325.629425,276.163055 327.860596,275.966370 330.739563,275.712616 
	C330.739563,269.561981 330.739563,263.655121 330.739563,257.748291 
	C331.177246,257.703308 331.614929,257.658295 332.052643,257.613312 
	C333.460205,262.451111 335.044006,267.246613 336.217651,272.140533 
	C337.100372,275.821533 339.481659,275.972748 342.539703,275.949646 
	C345.788269,275.925079 345.488708,273.703674 346.032928,271.656189 
	C347.434448,266.383148 349.046783,261.166138 350.574890,255.926758 
	C351.002747,255.981903 351.430603,256.037018 351.858459,256.092163 
	C351.858459,262.542847 351.858459,268.993561 351.858459,275.850555 
	C355.389862,275.850555 358.258270,275.850555 361.692505,275.850555 
	C361.692505,262.257874 361.735138,248.993713 361.584564,235.731750 
	C361.575714,234.952164 360.091980,233.648010 359.154144,233.504272 
	C350.144897,232.123398 348.827515,233.145584 346.497986,242.068420 
	C345.456665,246.057114 344.087646,249.962433 342.798157,253.882858 
	C342.399017,255.096420 341.771851,256.234985 341.249084,257.407898 
	C338.381592,250.671127 336.488556,244.194427 334.860992,237.651688 
	C334.173584,234.888123 333.187164,233.386475 329.939484,233.365509 
	C320.900238,233.307190 321.021393,233.158264 321.043640,242.139694 
	C321.066956,251.544556 320.715729,260.951050 320.796539,270.354492 
	C320.812927,272.261017 322.027039,274.157196 323.398285,276.359711 
M427.956055,267.396484 
	C426.956024,263.276794 425.955963,259.157074 424.818756,254.472366 
	C431.255646,248.336685 428.383636,236.820816 420.754669,234.977509 
	C414.228516,233.400665 407.265076,233.633743 400.106445,233.033737 
	C400.106445,245.555481 400.013458,256.682556 400.135895,267.807220 
	C400.233643,276.692200 398.174896,275.834717 408.374420,275.841614 
	C408.798798,275.841919 409.223450,275.469879 409.932861,275.138123 
	C409.932861,270.232971 409.932861,265.291718 409.932861,260.376953 
	C416.890717,260.044525 417.997772,260.993225 418.236908,267.205017 
	C418.287964,268.532135 418.186401,269.880951 418.389160,271.183350 
	C418.944611,274.750946 420.596954,276.941772 424.708008,276.027588 
	C426.129059,275.711639 427.632751,275.767456 429.015289,275.659943 
	C428.640961,273.049683 428.298309,270.660370 427.956055,267.396484 
M386.378326,268.941315 
	C388.522827,276.545990 388.522827,276.545990 398.501312,275.463593 
	C394.874786,262.781952 391.079773,250.220718 387.774292,237.531967 
	C386.746002,233.584717 384.529938,233.457169 381.354553,233.406708 
	C378.024872,233.353775 375.789917,233.842087 374.793182,237.658737 
	C372.414825,246.765579 369.639862,255.769623 366.977661,264.801208 
	C365.950714,268.285248 364.795471,271.731445 363.542633,275.687683 
	C367.641113,275.687683 370.593445,275.687683 373.747620,275.687683 
	C374.481567,273.218475 375.223175,270.723541 375.985565,268.158691 
	C379.360229,268.158691 382.657928,268.158691 386.378326,268.941315 
M260.420227,241.933319 
	C262.390656,241.933319 264.361115,241.933319 266.849426,241.933319 
	C266.849426,238.901779 266.849426,236.231705 266.849426,233.755432 
	C258.424927,233.755432 250.476547,233.755432 242.540054,233.755432 
	C242.540054,247.914688 242.540054,261.746246 242.540054,275.599976 
	C250.951797,275.599976 258.860291,275.599976 266.725067,275.599976 
	C267.824036,267.308746 267.824036,267.305664 260.295715,267.271790 
	C257.834015,267.260681 255.372223,267.270050 252.394073,267.270050 
	C252.394073,264.142822 252.394073,261.421417 252.394073,258.690125 
	C265.587128,259.238770 266.882263,258.194000 263.553955,249.501587 
	C259.887329,249.501587 256.130066,249.501587 252.442734,249.501587 
	C251.061005,241.990967 251.110931,241.939926 260.420227,241.933319 
M161.202774,261.512970 
	C161.410309,263.817810 161.773621,266.121063 161.796982,268.427765 
	C161.876099,276.240692 161.830307,276.244965 169.380173,275.849213 
	C169.662369,275.834381 169.933105,275.600891 170.118744,275.512421 
	C170.345444,271.033234 170.569214,266.612030 170.804840,261.956360 
	C172.982590,261.956360 174.625031,262.056946 176.251678,261.939301 
	C184.061081,261.374481 190.176132,255.410797 190.270508,248.337234 
	C190.383377,239.878952 185.578201,234.089355 177.540161,233.559906 
	C172.444595,233.224274 167.308960,233.497192 161.179565,233.497192 
	C161.179565,242.802841 161.179565,251.655838 161.202774,261.512970 
M271.366333,275.323730 
	C279.374054,275.323730 287.381775,275.323730 295.663330,275.323730 
	C295.663330,273.011780 295.663330,270.599091 295.663330,267.314758 
	C290.544434,267.314758 285.536011,267.314758 280.082367,267.314758 
	C280.082367,255.546585 280.082367,244.637939 280.082367,233.730164 
	C276.845551,233.730164 274.084045,233.730164 271.121429,233.730164 
	C271.121429,239.224945 271.125122,244.483429 271.120575,249.741928 
	C271.113434,258.005188 271.100739,266.268463 271.366333,275.323730 
M303.809967,261.609375 
	C305.298309,261.710541 306.785950,261.886169 308.275116,261.900391 
	C316.003418,261.974182 316.807983,260.831085 314.487946,253.459351 
	C309.691406,253.459351 304.959106,253.459351 299.557617,253.459351 
	C301.444000,256.289978 296.666016,260.799316 303.809967,261.609375 
z"/>
<path fill="#F0A12E" opacity="1.000000" stroke="none" 
	d="
M126.125763,250.999954 
	C126.084251,249.609528 126.042732,248.219101 126.436661,246.309204 
	C126.842133,240.368561 126.818642,234.947296 126.745056,229.526718 
	C126.743210,229.390381 126.188927,229.261551 125.892288,229.129227 
	C117.248856,237.096405 108.605423,245.063568 99.466820,253.487167 
	C89.735062,242.915085 79.008171,231.261948 68.546478,219.313553 
	C76.272110,222.830322 84.077942,223.736008 92.221443,221.800339 
	C95.042442,224.814255 97.863434,227.828156 101.155159,231.344971 
	C104.996086,227.271927 108.705383,223.338486 112.870842,219.393890 
	C113.568062,218.955078 113.809113,218.527390 114.050171,218.099701 
	C114.050171,218.099701 114.027992,218.021835 114.399872,217.986115 
	C115.809631,216.555893 116.847519,215.161377 117.885406,213.766846 
	C117.885399,213.766846 117.889885,213.878922 118.162766,213.890976 
	C119.068291,212.965179 119.700943,212.027328 120.333588,211.089462 
	C120.623009,210.720383 120.912430,210.351303 121.800377,209.933472 
	C125.653000,206.993362 128.963348,204.160629 132.102234,201.149185 
	C132.588058,200.683075 132.288193,199.398056 132.351685,198.491745 
	C132.351685,198.491745 132.419662,198.630920 132.758942,198.607849 
	C133.384689,198.043228 133.671158,197.501663 133.957626,196.960114 
	C133.957626,196.960114 133.999390,197.000000 134.317001,196.950089 
	C135.045486,196.207123 135.456360,195.514069 135.867218,194.821014 
	C135.867218,194.821014 135.919205,194.930313 136.221558,194.916367 
	C137.573502,194.550827 138.623077,194.199219 139.997238,193.738892 
	C139.997238,219.308899 139.997330,244.578461 139.996277,269.848022 
	C139.996262,270.180603 140.014420,270.517761 139.968979,270.845123 
	C139.294861,275.702332 135.567108,274.844482 132.303528,275.007812 
	C129.013397,275.172455 127.891838,273.591125 127.961090,270.478851 
	C128.075775,265.324768 128.113113,260.160858 127.898842,255.012939 
	C127.842239,253.653030 126.745102,252.336441 126.125763,250.999954 
z"/>
<path fill="#48A5D1" opacity="1.000000" stroke="none" 
	d="
M92.566673,221.646545 
	C84.077942,223.736008 76.272110,222.830322 68.438690,218.996338 
	C51.894062,205.531158 53.308220,182.906738 70.912132,173.890030 
	C81.002548,168.721695 90.777740,170.011795 99.434494,176.722290 
	C107.584869,183.040253 110.153427,192.004242 108.554710,202.123291 
	C107.063339,211.562958 100.761093,217.163651 92.566673,221.646545 
M89.328018,208.164795 
	C94.285599,205.118744 95.955055,200.610168 95.297554,194.992599 
	C94.534973,188.477264 87.475578,183.598236 80.635017,184.930923 
	C73.698235,186.282333 68.838066,193.246704 70.469292,199.497894 
	C72.865791,208.681793 78.851082,211.659286 89.328018,208.164795 
z"/>
<path fill="#F0EFEF" opacity="1.000000" stroke="none" 
	d="
M323.043640,276.208923 
	C322.027039,274.157196 320.812927,272.261017 320.796539,270.354492 
	C320.715729,260.951050 321.066956,251.544556 321.043640,242.139694 
	C321.021393,233.158264 320.900238,233.307190 329.939484,233.365509 
	C333.187164,233.386475 334.173584,234.888123 334.860992,237.651688 
	C336.488556,244.194427 338.381592,250.671127 341.249084,257.407898 
	C341.771851,256.234985 342.399017,255.096420 342.798157,253.882858 
	C344.087646,249.962433 345.456665,246.057114 346.497986,242.068420 
	C348.827515,233.145584 350.144897,232.123398 359.154144,233.504272 
	C360.091980,233.648010 361.575714,234.952164 361.584564,235.731750 
	C361.735138,248.993713 361.692505,262.257874 361.692505,275.850555 
	C358.258270,275.850555 355.389862,275.850555 351.858459,275.850555 
	C351.858459,268.993561 351.858459,262.542847 351.858459,256.092163 
	C351.430603,256.037018 351.002747,255.981903 350.574890,255.926758 
	C349.046783,261.166138 347.434448,266.383148 346.032928,271.656189 
	C345.488708,273.703674 345.788269,275.925079 342.539703,275.949646 
	C339.481659,275.972748 337.100372,275.821533 336.217651,272.140533 
	C335.044006,267.246613 333.460205,262.451111 332.052643,257.613312 
	C331.614929,257.658295 331.177246,257.703308 330.739563,257.748291 
	C330.739563,263.655121 330.739563,269.561981 330.739563,275.712616 
	C327.860596,275.966370 325.629425,276.163055 323.043640,276.208923 
z"/>
<path fill="#F2F1F2" opacity="1.000000" stroke="none" 
	d="
M427.955872,267.833771 
	C428.298309,270.660370 428.640961,273.049683 429.015289,275.659943 
	C427.632751,275.767456 426.129059,275.711639 424.708008,276.027588 
	C420.596954,276.941772 418.944611,274.750946 418.389160,271.183350 
	C418.186401,269.880951 418.287964,268.532135 418.236908,267.205017 
	C417.997772,260.993225 416.890717,260.044525 409.932861,260.376953 
	C409.932861,265.291718 409.932861,270.232971 409.932861,275.138123 
	C409.223450,275.469879 408.798798,275.841919 408.374420,275.841614 
	C398.174896,275.834717 400.233643,276.692200 400.135895,267.807220 
	C400.013458,256.682556 400.106445,245.555481 400.106445,233.033737 
	C407.265076,233.633743 414.228516,233.400665 420.754669,234.977509 
	C428.383636,236.820816 431.255646,248.336685 424.818756,254.472366 
	C425.955963,259.157074 426.956024,263.276794 427.955872,267.833771 
M411.471405,251.705856 
	C415.341248,252.127029 418.476196,250.876404 418.122101,246.591965 
	C417.723999,241.774719 413.891876,241.745026 409.470154,242.119080 
	C409.890167,245.454361 410.268463,248.458496 411.471405,251.705856 
z"/>
<path fill="#F0EFEF" opacity="1.000000" stroke="none" 
	d="
M207.962616,234.099274 
	C211.555130,234.391861 215.987564,233.508469 218.504959,235.306396 
	C221.043716,237.119614 221.681580,241.594345 223.540909,245.777237 
	C224.563461,243.407059 225.314957,241.726913 226.017319,240.026489 
	C229.002121,232.800079 232.343109,231.492218 240.008606,234.482941 
	C237.236496,239.553787 234.531601,244.679977 231.652496,249.706375 
	C229.685730,253.140015 229.733521,256.268982 231.870224,259.662903 
	C234.422806,263.717438 236.661911,267.972870 238.941696,272.192688 
	C239.449036,273.131775 239.559494,274.285309 239.795990,275.136108 
	C228.478363,279.475616 226.559082,270.916382 223.547607,263.011139 
	C219.695419,269.944702 218.691086,279.931793 206.930283,275.048462 
	C209.718491,269.607452 212.423630,263.818268 215.614594,258.310547 
	C217.283081,255.430664 216.889694,253.303955 215.399048,250.575928 
	C212.707840,245.650757 210.474121,240.475601 208.057724,234.901108 
	C208.066086,234.397385 207.962616,234.099274 207.962616,234.099274 
z"/>
<path fill="#F2F1F2" opacity="1.000000" stroke="none" 
	d="
M386.166992,268.549988 
	C382.657928,268.158691 379.360229,268.158691 375.985565,268.158691 
	C375.223175,270.723541 374.481567,273.218475 373.747620,275.687683 
	C370.593445,275.687683 367.641113,275.687683 363.542633,275.687683 
	C364.795471,271.731445 365.950714,268.285248 366.977661,264.801208 
	C369.639862,255.769623 372.414825,246.765579 374.793182,237.658737 
	C375.789917,233.842087 378.024872,233.353775 381.354553,233.406708 
	C384.529938,233.457169 386.746002,233.584717 387.774292,237.531967 
	C391.079773,250.220718 394.874786,262.781952 398.501312,275.463593 
	C388.522827,276.545990 388.522827,276.545990 386.166992,268.549988 
M381.529388,259.447479 
	C382.168549,258.605347 383.434357,257.673645 383.329193,256.937897 
	C383.015289,254.741806 382.163849,252.622574 381.135101,249.175858 
	C380.104034,252.549194 379.218109,254.784546 378.840881,257.102661 
	C378.733459,257.762787 380.104706,258.663574 381.529388,259.447479 
z"/>
<path fill="#F0EFEF" opacity="1.000000" stroke="none" 
	d="
M259.949799,241.932541 
	C251.110931,241.939926 251.061005,241.990967 252.442734,249.501587 
	C256.130066,249.501587 259.887329,249.501587 263.553955,249.501587 
	C266.882263,258.194000 265.587128,259.238770 252.394073,258.690125 
	C252.394073,261.421417 252.394073,264.142822 252.394073,267.270050 
	C255.372223,267.270050 257.834015,267.260681 260.295715,267.271790 
	C267.824036,267.305664 267.824036,267.308746 266.725067,275.599976 
	C258.860291,275.599976 250.951797,275.599976 242.540054,275.599976 
	C242.540054,261.746246 242.540054,247.914688 242.540054,233.755432 
	C250.476547,233.755432 258.424927,233.755432 266.849426,233.755432 
	C266.849426,236.231705 266.849426,238.901779 266.849426,241.933319 
	C264.361115,241.933319 262.390656,241.933319 259.949799,241.932541 
z"/>
<path fill="#F5F4F4" opacity="1.000000" stroke="none" 
	d="
M161.191162,261.010925 
	C161.179565,251.655838 161.179565,242.802841 161.179565,233.497192 
	C167.308960,233.497192 172.444595,233.224274 177.540161,233.559906 
	C185.578201,234.089355 190.383377,239.878952 190.270508,248.337234 
	C190.176132,255.410797 184.061081,261.374481 176.251678,261.939301 
	C174.625031,262.056946 172.982590,261.956360 170.804840,261.956360 
	C170.569214,266.612030 170.345444,271.033234 170.118744,275.512421 
	C169.933105,275.600891 169.662369,275.834381 169.380173,275.849213 
	C161.830307,276.244965 161.876099,276.240692 161.796982,268.427765 
	C161.773621,266.121063 161.410309,263.817810 161.191162,261.010925 
M173.575256,241.902176 
	C167.927414,244.645370 170.824265,248.997330 171.063431,253.027298 
	C175.119232,253.139999 179.180618,253.980362 180.050293,248.814835 
	C180.759995,244.599426 178.802063,242.156921 173.575256,241.902176 
z"/>
<path fill="#F2F1F2" opacity="1.000000" stroke="none" 
	d="
M271.228363,274.927734 
	C271.100739,266.268463 271.113434,258.005188 271.120575,249.741928 
	C271.125122,244.483429 271.121429,239.224945 271.121429,233.730164 
	C274.084045,233.730164 276.845551,233.730164 280.082367,233.730164 
	C280.082367,244.637939 280.082367,255.546585 280.082367,267.314758 
	C285.536011,267.314758 290.544434,267.314758 295.663330,267.314758 
	C295.663330,270.599091 295.663330,273.011780 295.663330,275.323730 
	C287.381775,275.323730 279.374054,275.323730 271.228363,274.927734 
z"/>
<path fill="#46ABDC" opacity="1.000000" stroke="none" 
	d="
M61.758202,225.106888 
	C64.303238,227.030289 66.848274,228.953674 69.696426,231.421036 
	C71.362030,233.290726 72.724518,234.616455 74.087006,235.942184 
	C74.087006,235.942184 74.004730,235.992874 74.026627,236.383728 
	C74.367943,248.172897 74.813606,259.570953 74.837105,270.969879 
	C74.839859,272.301819 72.694626,273.921967 71.205399,274.880737 
	C70.073242,275.609619 68.401596,275.500519 66.969986,275.764282 
	C66.241180,275.772339 65.512367,275.780396 64.336121,275.363831 
	C63.258739,272.794464 62.129551,270.660065 62.084854,268.503174 
	C61.886398,258.926178 62.064121,249.342133 61.968948,239.762009 
	C61.926754,235.514511 61.560184,231.270248 61.340862,227.024506 
	C61.329239,226.584717 61.317619,226.144928 61.464771,225.434174 
	C61.623543,225.163193 61.758205,225.106888 61.758202,225.106888 
z"/>
<path fill="#F0EFEF" opacity="1.000000" stroke="none" 
	d="
M440.395050,261.365326 
	C439.979645,258.733154 439.359070,256.113312 439.199860,253.465729 
	C438.991821,250.007233 439.148895,246.526779 439.148895,243.126022 
	C428.463806,241.062103 428.463806,241.062103 430.371155,233.536438 
	C439.450836,233.536438 448.568634,233.536438 458.201355,233.536438 
	C458.201355,236.256760 458.201355,238.919189 458.201355,241.791763 
	C455.099854,242.023621 452.370514,242.227661 449.531219,242.439926 
	C449.043213,248.918533 448.565369,255.261780 447.624329,261.343719 
	C445.824615,261.355499 444.488098,261.628571 443.151581,261.901672 
	C442.746124,261.740021 442.340668,261.578339 441.277588,261.279266 
	C440.619934,261.141876 440.395050,261.365326 440.395050,261.365326 
z"/>
<path fill="#EAE9E7" opacity="1.000000" stroke="none" 
	d="
M201.720215,241.601883 
	C202.465103,243.075928 203.792999,244.524292 203.859268,246.028244 
	C204.259430,255.108902 204.446854,264.202179 204.456024,273.291534 
	C204.456894,274.156860 202.836700,275.595642 201.799286,275.772583 
	C199.557953,276.154785 197.206314,275.890137 194.461563,275.890137 
	C194.461563,264.719910 194.452591,253.822632 194.505066,242.925659 
	C194.506638,242.599960 195.152405,242.277390 196.286911,241.945831 
	C198.624069,241.826157 200.172150,241.714020 201.720215,241.601883 
z"/>
<path fill="#E2A441" opacity="1.000000" stroke="none" 
	d="
M126.056580,251.464111 
	C126.745102,252.336441 127.842239,253.653030 127.898842,255.012939 
	C128.113113,260.160858 128.075775,265.324768 127.961090,270.478851 
	C127.891838,273.591125 129.013397,275.172455 132.303528,275.007812 
	C135.567108,274.844482 139.294861,275.702332 139.968979,270.845123 
	C140.014420,270.517761 139.996262,270.180603 139.996277,269.848022 
	C139.997330,244.578461 139.997238,219.308899 139.997238,193.738892 
	C138.623077,194.199219 137.573502,194.550827 136.169037,194.886337 
	C137.193008,193.340805 138.571899,191.811371 139.950775,190.281921 
	C140.484161,190.385254 141.017532,190.488571 141.550903,190.591904 
	C141.550903,194.078918 141.550964,197.565933 141.550888,201.052948 
	C141.550552,216.859833 141.554916,232.666702 141.547806,248.473587 
	C141.544174,256.553009 141.641541,264.636627 141.364563,272.707031 
	C141.326202,273.824707 139.474121,275.695038 138.320343,275.811035 
	C134.427063,276.202393 130.470062,275.960052 125.987404,275.960052 
	C125.987404,267.822388 125.987404,259.875336 126.056580,251.464111 
z"/>
<path fill="#48A5D1" opacity="1.000000" stroke="none" 
	d="
M442.877625,262.203339 
	C444.488098,261.628571 445.824615,261.355499 447.349609,261.223175 
	C448.012024,262.012848 448.429199,262.713745 448.968964,263.302216 
	C452.822357,267.503418 452.848022,272.647156 449.001770,275.487396 
	C446.065247,277.655853 440.440369,276.424194 438.404999,273.167084 
	C435.736359,268.896515 437.094879,265.446716 442.877625,262.203339 
z"/>
<path fill="#E2A441" opacity="1.000000" stroke="none" 
	d="
M201.763794,241.268311 
	C200.172150,241.714020 198.624069,241.826157 196.709045,241.832214 
	C195.616684,240.694290 194.556259,239.756973 194.233170,238.611649 
	C193.477264,235.931992 192.107559,232.852051 192.835480,230.508545 
	C193.418564,228.631302 196.780731,226.410507 198.804550,226.508606 
	C201.073898,226.618591 203.293915,229.075989 205.395630,230.693619 
	C206.299591,231.389374 206.851547,232.542465 207.763031,233.793518 
	C207.962616,234.099274 208.066086,234.397385 207.965759,234.517242 
	C205.846100,236.736328 203.826736,238.835541 201.763794,241.268311 
z"/>
<path fill="#F2F1F2" opacity="1.000000" stroke="none" 
	d="
M303.358521,261.537018 
	C296.666016,260.799316 301.444000,256.289978 299.557617,253.459351 
	C304.959106,253.459351 309.691406,253.459351 314.487946,253.459351 
	C316.807983,260.831085 316.003418,261.974182 308.275116,261.900391 
	C306.785950,261.886169 305.298309,261.710541 303.358521,261.537018 
z"/>
<path fill="#5392B0" opacity="1.000000" stroke="none" 
	d="
M67.348602,275.883698 
	C68.401596,275.500519 70.073242,275.609619 71.205399,274.880737 
	C72.694626,273.921967 74.839859,272.301819 74.837105,270.969879 
	C74.813606,259.570953 74.367943,248.172897 74.057922,236.346893 
	C74.965988,237.876007 76.584389,239.812286 76.640762,241.793045 
	C76.908546,251.200912 76.777283,260.621033 76.735184,270.036560 
	C76.706711,276.404083 73.899162,278.235626 67.348602,275.883698 
z"/>
<path fill="#5392B0" opacity="1.000000" stroke="none" 
	d="
M61.202354,227.473053 
	C61.560184,231.270248 61.926754,235.514511 61.968948,239.762009 
	C62.064121,249.342133 61.886398,258.926178 62.084854,268.503174 
	C62.129551,270.660065 63.258739,272.794464 63.977070,275.297943 
	C60.874500,276.376221 60.971004,274.228546 60.975708,272.132965 
	C61.008812,257.395844 61.035267,242.658737 61.202354,227.473053 
z"/>
<path fill="#E2A441" opacity="1.000000" stroke="none" 
	d="
M132.056091,198.606812 
	C132.288193,199.398056 132.588058,200.683075 132.102234,201.149185 
	C128.963348,204.160629 125.653000,206.993362 122.034317,209.869232 
	C125.033318,206.143143 128.396896,202.432510 132.056091,198.606812 
z"/>
<path fill="#E2A441" opacity="1.000000" stroke="none" 
	d="
M125.924210,229.584167 
	C126.188927,229.261551 126.743210,229.390381 126.745056,229.526718 
	C126.818642,234.947296 126.842133,240.368561 126.501358,245.896042 
	C126.072449,240.681274 126.014290,235.360184 125.924210,229.584167 
z"/>
<path fill="#5392B0" opacity="1.000000" stroke="none" 
	d="
M74.040428,235.617096 
	C72.724518,234.616455 71.362030,233.290726 69.980103,231.620300 
	C71.305061,232.614395 72.649452,233.953201 74.040428,235.617096 
z"/>
<path fill="#E2A441" opacity="1.000000" stroke="none" 
	d="
M117.576096,213.870102 
	C116.847519,215.161377 115.809631,216.555893 114.437424,218.001221 
	C115.157654,216.692490 116.212219,215.332932 117.576096,213.870102 
z"/>
<path fill="#E2A441" opacity="1.000000" stroke="none" 
	d="
M120.052582,211.247559 
	C119.700943,212.027328 119.068291,212.965179 118.109909,213.872192 
	C118.446648,213.029465 119.109108,212.217560 120.052582,211.247559 
z"/>
<path fill="#E2A441" opacity="1.000000" stroke="none" 
	d="
M135.593842,194.935547 
	C135.456360,195.514069 135.045486,196.207123 134.297546,196.929199 
	C134.413788,196.322174 134.867126,195.686127 135.593842,194.935547 
z"/>
<path fill="#E2A441" opacity="1.000000" stroke="none" 
	d="
M113.793991,218.166016 
	C113.809113,218.527390 113.568062,218.955078 113.167023,219.250671 
	C113.183975,218.823166 113.360901,218.527756 113.793991,218.166016 
z"/>
<path fill="#E2A441" opacity="1.000000" stroke="none" 
	d="
M133.675354,197.028870 
	C133.671158,197.501663 133.384689,198.043228 132.764771,198.530624 
	C132.751923,198.016846 133.072495,197.557236 133.675354,197.028870 
z"/>
<path fill="#48A5D1" opacity="1.000000" stroke="none" 
	d="
M440.382019,261.493103 
	C440.395050,261.365326 440.619934,261.141876 440.623291,261.254913 
	C440.626617,261.367950 440.625763,261.625885 440.625763,261.625885 
	C440.625763,261.625885 440.369019,261.620850 440.382019,261.493103 
z"/>
<path fill="#5392B0" opacity="1.000000" stroke="none" 
	d="
M61.774231,224.934937 
	C61.758205,225.106888 61.623543,225.163193 61.565506,225.119293 
	C61.601734,224.971268 61.695995,224.867126 61.774231,224.934937 
z"/>
<path fill="#000000" opacity="1.000000" stroke="none" 
	d="
M88.983315,208.350677 
	C78.851082,211.659286 72.865791,208.681793 70.469292,199.497894 
	C68.838066,193.246704 73.698235,186.282333 80.635017,184.930923 
	C87.475578,183.598236 94.534973,188.477264 95.297554,194.992599 
	C95.955055,200.610168 94.285599,205.118744 88.983315,208.350677 
z"/>
<path fill="#000000" opacity="1.000000" stroke="none" 
	d="
M411.059082,251.584244 
	C410.268463,248.458496 409.890167,245.454361 409.470154,242.119080 
	C413.891876,241.745026 417.723999,241.774719 418.122101,246.591965 
	C418.476196,250.876404 415.341248,252.127029 411.059082,251.584244 
z"/>
<path fill="#000000" opacity="1.000000" stroke="none" 
	d="
M381.163635,259.450745 
	C380.104706,258.663574 378.733459,257.762787 378.840881,257.102661 
	C379.218109,254.784546 380.104034,252.549194 381.135101,249.175858 
	C382.163849,252.622574 383.015289,254.741806 383.329193,256.937897 
	C383.434357,257.673645 382.168549,258.605347 381.163635,259.450745 
z"/>
<path fill="#000000" opacity="1.000000" stroke="none" 
	d="
M173.994751,241.896072 
	C178.802063,242.156921 180.759995,244.599426 180.050293,248.814835 
	C179.180618,253.980362 175.119232,253.139999 171.063431,253.027298 
	C170.824265,248.997330 167.927414,244.645370 173.994751,241.896072 
z"/>
</svg>