<svg version="1.1" id="Layer_1" xmlns="http://www.w3.org/2000/svg" xmlns:xlink="http://www.w3.org/1999/xlink" x="0px" y="0px"
	 width="100%" viewBox="0 0 1019 1080" enable-background="new 0 0 1019 1080" xml:space="preserve">
<path fill="#000000" opacity="1.000000" stroke="none" 
	d="
M553.000000,1081.000000 
	C368.666656,1081.000000 184.833328,1081.000000 1.000000,1081.000000 
	C1.000000,721.000000 1.000000,361.000000 1.000000,1.000000 
	C340.666656,1.000000 680.333313,1.000000 1020.000000,1.000000 
	C1020.000000,361.000000 1020.000000,721.000000 1020.000000,1081.000000 
	C864.500000,1081.000000 709.000000,1081.000000 553.000000,1081.000000 
M140.909821,541.477905 
	C140.604507,541.305847 140.299210,541.133789 139.991898,541.010315 
	C139.991898,541.010315 140.036377,540.990662 139.980789,540.274719 
	C138.667999,538.829224 137.355194,537.383667 136.004196,535.986389 
	C136.004196,535.986389 136.065628,535.989380 135.950241,535.440796 
	C135.635208,535.269287 135.320175,535.097717 135.011658,534.990173 
	C135.011658,534.990173 135.070129,534.963379 134.843597,534.336548 
	C132.903320,532.536926 130.963043,530.737305 129.004761,528.995300 
	C129.004761,528.995300 129.060944,528.973389 128.814545,528.329285 
	C127.172798,526.607605 125.531052,524.885925 123.448624,522.702148 
	C123.448624,557.660156 123.448624,592.151611 123.448624,626.679626 
	C128.439850,626.679626 133.225708,626.679626 138.885971,626.847717 
	C141.257019,626.795349 143.628067,626.742981 146.869003,626.845825 
	C148.464706,626.845825 150.060394,626.845825 151.630051,626.845825 
	C151.805923,625.860962 151.965378,625.383728 151.965729,624.906433 
	C151.982468,601.936340 151.998001,578.966309 151.948380,555.996277 
	C151.946182,554.983093 151.334747,553.971191 150.994385,553.009216 
	C150.994385,553.009216 151.045242,552.998047 150.983643,552.295105 
	C148.971329,550.110535 146.959030,547.925964 144.878708,545.380615 
	C144.739182,545.142822 144.532013,545.034912 143.940720,544.473572 
	C142.964478,543.634460 141.988235,542.795410 140.992813,542.008179 
	C140.992813,542.008179 141.048111,542.005737 140.909821,541.477905 
M448.004913,537.988953 
	C448.004913,537.988953 448.053436,537.956543 447.603027,537.209473 
	C441.202271,537.209473 434.801514,537.209473 427.818268,537.209473 
	C428.284851,538.432739 428.646942,539.382141 429.057587,541.016113 
	C435.267700,553.688843 441.662598,566.277405 447.515259,579.113098 
	C448.552185,581.387268 448.135498,585.069336 447.015045,587.455627 
	C441.579254,599.032410 435.649811,610.376648 429.964783,621.837769 
	C429.142883,623.494751 428.697876,625.338623 428.050354,627.175842 
	C444.563873,630.712097 447.834259,628.957153 453.134064,614.259766 
	C453.529053,613.164368 453.928284,612.067139 454.397888,611.002686 
	C456.224884,606.861511 458.081055,602.733337 460.327118,597.702820 
	C461.526245,599.821899 462.271729,600.878052 462.758575,602.042358 
	C465.702148,609.082520 468.463470,616.202454 471.575439,623.166199 
	C472.377716,624.961487 474.118317,627.498657 475.602997,627.624207 
	C481.624268,628.133423 487.713776,627.835754 494.682922,627.835754 
	C493.275848,624.718811 492.478729,622.741394 491.513641,620.849670 
	C485.399750,608.865540 479.180298,596.934387 473.196472,584.885986 
	C472.447021,583.377014 472.186310,580.954590 472.870911,579.511047 
	C478.022003,568.649902 483.491425,557.940063 488.802551,547.153992 
	C490.153107,544.411194 491.292145,541.564209 492.856934,538.021057 
	C486.396332,538.021057 480.772827,537.849487 475.175964,538.159485 
	C473.995300,538.224854 472.491547,539.845764 471.863739,541.110718 
	C470.021973,544.821716 468.568787,548.724121 466.921753,552.533508 
	C464.884674,557.245056 462.805695,561.938538 460.318726,567.611877 
	C456.124573,557.789001 452.490479,549.277832 448.948212,540.092346 
	C448.650970,539.378296 448.353760,538.664185 448.004913,537.988953 
M829.323975,538.135376 
	C829.256165,538.774353 829.188293,539.413391 829.052185,540.980835 
	C829.049133,568.131470 829.030762,595.282043 829.083984,622.432617 
	C829.086975,623.954895 829.680786,625.475952 830.635498,627.525940 
	C835.998352,627.389465 841.361206,627.253052 847.582703,626.783997 
	C847.691589,615.532898 847.800415,604.281738 848.840027,593.045105 
	C855.588013,592.435242 861.966797,593.168762 867.153442,598.956360 
	C867.399353,606.101685 867.266174,613.291382 868.092834,620.368835 
	C868.389954,622.912964 870.998047,625.187256 873.526001,627.766541 
	C878.733521,627.766541 883.941101,627.766541 888.306946,627.766541 
	C887.470947,620.813232 886.147644,614.666138 886.125305,608.514343 
	C886.089294,598.600769 883.907837,590.119995 873.071838,584.458801 
	C874.804810,583.414734 875.774170,582.803894 876.768127,582.235962 
	C889.328674,575.059265 886.577881,549.457397 875.615051,543.762573 
	C871.529541,541.640259 867.227661,539.934204 862.726685,537.193909 
	C852.654968,537.127014 842.583313,537.035828 832.511597,537.036560 
	C831.653748,537.036621 830.795837,537.648804 829.996399,537.993103 
	C829.996399,537.993103 829.970154,537.938416 829.323975,538.135376 
M651.573853,580.302368 
	C642.555298,580.224060 633.536560,580.105164 624.518311,580.132690 
	C623.653076,580.135315 622.790649,581.049072 621.862305,582.402222 
	C621.899536,586.921509 621.936829,591.440857 622.391785,596.727356 
	C632.552429,596.727356 642.713135,596.727356 653.553101,596.727356 
	C653.008606,591.160095 652.508728,586.047913 651.996582,581.006653 
	C651.996582,581.006653 652.067322,581.019409 651.573853,580.302368 
M911.006042,596.019531 
	C911.006042,596.019531 910.943665,596.036316 911.401611,596.777222 
	C917.154907,596.777222 922.908264,596.777222 928.801880,596.777222 
	C928.801880,582.303711 928.801880,568.194031 929.762207,554.030945 
	C934.698792,554.020447 939.651855,554.231995 944.562134,553.866882 
	C946.074463,553.754395 948.670654,552.113892 948.710266,551.093140 
	C948.879639,546.727234 948.278992,542.331543 947.482422,537.239136 
	C929.303955,537.155151 911.125488,537.059937 892.946960,537.032471 
	C892.287292,537.031494 891.626526,537.696716 890.911255,538.978516 
	C890.909546,542.269836 891.133545,545.580750 890.849731,548.847595 
	C890.482483,553.075745 892.326355,554.322205 896.289795,554.110901 
	C900.862244,553.867065 905.458679,554.074829 910.039734,555.012634 
	C910.017456,567.382751 909.963928,579.752930 910.018433,592.122742 
	C910.024231,593.444641 910.660706,594.763733 911.006042,596.019531 
M549.998840,552.995117 
	C549.998840,552.995117 550.012878,553.064026 550.729919,552.574158 
	C550.729919,547.500305 550.729919,542.426514 550.729919,537.027832 
	C534.477356,537.027832 518.430420,537.018311 502.383759,537.073486 
	C501.898651,537.075134 501.415833,537.752014 500.915771,538.419861 
	C500.915771,538.419861 501.027374,538.704895 500.291412,539.230347 
	C500.186768,539.714172 499.990906,540.197876 499.990509,540.681763 
	C499.967560,568.479004 499.949860,596.276306 499.996643,624.073486 
	C499.998322,625.079834 500.650116,626.085205 501.003448,626.996460 
	C501.003448,626.996460 500.908936,626.991638 501.318604,627.778137 
	C516.867676,627.846436 532.416809,627.926880 547.965942,627.941223 
	C548.633118,627.941833 549.300903,627.331543 550.500183,626.369995 
	C550.312622,621.547180 550.125061,616.724365 549.469360,611.191772 
	C539.307556,611.107361 529.145813,611.022949 519.018311,610.009583 
	C519.027222,602.961670 519.036133,595.913696 519.975708,588.850586 
	C525.125916,588.843384 530.276184,588.829590 535.426392,588.830444 
	C546.787048,588.832275 547.180542,588.388672 545.712952,577.157166 
	C545.691467,576.992615 545.688965,576.825562 545.664795,576.661499 
	C545.306152,574.229004 544.251526,573.032837 541.439148,573.099121 
	C533.969055,573.275208 526.490417,573.087463 519.017151,572.102356 
	C519.010376,566.072693 519.003601,560.043030 519.934326,553.987305 
	C528.320496,553.972961 536.707397,554.009521 545.092346,553.901184 
	C546.754456,553.879761 548.409485,553.302063 549.998840,552.995117 
M578.943176,611.059021 
	C578.943176,611.059021 579.070374,611.056641 579.011963,610.112793 
	C579.025696,587.887756 579.059753,565.662598 579.007629,543.437744 
	C579.004089,541.947876 578.347900,540.459534 577.350281,538.444641 
	C571.882019,538.307251 566.413696,538.169861 560.182434,538.441345 
	C560.129089,567.136780 560.067078,595.832153 560.064453,624.527588 
	C560.064392,625.376953 560.689392,626.226318 561.022339,626.979370 
	C561.022339,626.979370 560.926025,626.978760 561.361633,627.744263 
	C577.286926,627.817444 593.212280,627.903198 609.137634,627.921631 
	C609.829956,627.922485 610.523010,627.305359 611.725525,626.330200 
	C611.477478,621.542908 611.229431,616.755615 610.562073,611.210144 
	C600.020630,611.117432 589.479187,611.024719 578.943176,611.059021 
M400.301819,555.468750 
	C400.216919,578.807373 400.125916,602.145935 400.087219,625.484619 
	C400.086365,625.995544 400.683685,626.507568 401.680511,627.490601 
	C406.858978,627.592041 412.037445,627.693481 417.716858,627.174316 
	C417.743683,603.709900 417.778595,580.245483 417.766754,556.781067 
	C417.766296,555.873962 417.317017,554.967102 416.137482,553.980591 
	C411.092041,554.307861 406.046570,554.635132 400.301819,555.468750 
M331.675323,627.651062 
	C337.113190,627.488586 342.551056,627.326111 348.707886,626.648254 
	C348.840759,616.758850 348.973602,606.869446 350.028717,596.976501 
	C353.191193,596.978821 356.357147,596.885193 359.515625,596.998962 
	C381.644989,597.796021 394.873505,577.296753 388.275909,557.203857 
	C384.703339,546.323547 376.868042,540.512512 365.753693,537.255859 
	C354.851105,537.170227 343.948517,537.056763 333.045990,537.063538 
	C332.341553,537.063965 331.637665,537.991150 330.810120,539.059875 
	C330.880890,539.640198 330.951660,540.220520 330.257263,541.268860 
	C330.155670,541.921204 329.965637,542.573425 329.965240,543.225830 
	C329.949249,570.024109 329.936768,596.822449 329.994568,623.620605 
	C329.997131,624.799744 330.662262,625.977356 331.675323,627.651062 
M801.977417,612.818115 
	C806.661377,631.593384 802.530823,627.392578 819.184937,627.958191 
	C819.517578,627.969482 819.851318,627.948730 820.184509,627.946350 
	C823.053650,627.925781 824.137817,626.646484 823.203064,623.808289 
	C822.736206,622.390930 822.444824,620.916626 822.045044,619.476135 
	C815.773926,596.879639 809.715210,574.221008 803.150818,551.709900 
	C798.354858,535.263489 802.715820,538.413452 785.822266,537.854797 
	C781.683289,537.717957 780.010803,539.154053 778.962952,543.009949 
	C772.039917,568.485107 764.905090,593.902588 757.866760,619.346558 
	C757.173218,621.853882 756.664978,624.412415 755.928345,627.554382 
	C761.983521,627.554382 767.399963,627.641357 772.807007,627.453613 
	C773.554077,627.427734 774.687866,626.148193 774.903625,625.267944 
	C776.087769,620.436462 777.041809,615.548645 778.823792,610.339844 
	C785.803833,610.183411 792.783813,610.027039 800.337708,609.970398 
	C800.531860,609.973633 800.725952,609.976929 801.097412,610.557007 
	C801.399048,611.044739 801.700684,611.532471 801.977417,612.818115 
M725.660645,586.003662 
	C725.805542,585.252075 725.950378,584.500427 726.121216,583.625610 
	C726.121216,583.625610 726.008789,583.569092 726.643738,583.045044 
	C727.422974,580.411194 728.202148,577.777405 728.981384,575.143555 
	C730.019287,590.902832 729.988953,606.376892 730.062256,621.850525 
	C730.070312,623.559265 730.670898,625.265198 731.645996,627.486450 
	C736.765381,627.312683 741.884705,627.138916 747.687378,626.462036 
	C747.770874,605.713623 747.864807,584.965210 747.932861,564.216736 
	C747.962158,555.293213 747.937805,546.369568 747.937805,536.952026 
	C740.825012,536.952026 734.062561,536.897705 727.302673,537.005249 
	C726.169922,537.023315 725.048401,537.743042 723.889465,538.946350 
	C723.247375,541.482239 722.625671,544.023499 721.960022,546.553162 
	C717.614380,563.068542 713.274048,579.585388 708.865845,596.084106 
	C708.631042,596.962769 707.796631,597.681152 706.785095,599.125793 
	C701.396484,579.606201 696.187134,561.066956 691.226318,542.461365 
	C690.334229,539.115356 688.893738,537.752869 685.416565,537.885864 
	C679.264526,538.121155 673.099121,538.005554 666.194031,538.470093 
	C666.140137,567.130066 666.077759,595.789978 666.073364,624.449951 
	C666.073242,625.308899 666.680481,626.167969 667.635010,627.562073 
	C672.990234,627.415100 678.345398,627.268127 684.563232,626.787781 
	C684.712708,624.988342 684.986877,623.189331 684.991882,621.389465 
	C685.030884,607.442688 684.991028,593.495605 685.058899,579.549011 
	C685.066345,578.012817 685.598999,576.479126 686.387634,575.496643 
	C690.901123,591.411438 695.484497,607.307007 699.868713,623.257324 
	C700.734863,626.408508 701.958862,628.430359 705.548340,627.948120 
	C708.839111,627.505981 713.070679,629.765259 714.526001,624.332520 
	C717.918030,611.670044 721.495239,599.057068 725.660645,586.003662 
M118.001465,487.953918 
	C121.458435,493.919373 124.476059,500.204712 128.512634,505.748138 
	C131.690247,510.111755 136.124329,513.560486 140.605026,517.985107 
	C147.221298,525.641113 153.724930,533.398560 160.495132,540.915955 
	C164.711838,545.597961 169.417145,549.835938 173.752731,554.415649 
	C182.831894,564.005981 191.828705,573.674622 200.817917,583.349548 
	C202.656601,585.328552 203.805237,585.362427 205.782867,583.142517 
	C212.053741,576.103577 218.642731,569.346741 225.145859,562.516235 
	C233.705048,553.526062 242.269684,544.540527 250.913589,535.632202 
	C252.101486,534.407959 253.758789,533.639160 256.005249,532.110840 
	C256.005249,548.812866 256.004517,564.135742 256.005463,579.458557 
	C256.006348,593.957397 255.997757,608.456177 256.022491,622.955017 
	C256.026367,625.220337 255.462082,627.960449 259.131287,627.967896 
	C267.253693,627.984436 275.376160,627.973083 283.749390,627.973083 
	C283.749390,571.779602 283.749390,516.040100 283.749390,458.664917 
	C256.387817,487.205475 229.917145,514.816711 202.524231,543.389954 
	C195.321503,535.712280 188.641312,528.591553 182.411789,520.994629 
	C186.114182,519.027222 189.879623,517.168945 193.507812,515.073059 
	C207.556183,506.957764 215.882309,494.564270 217.812180,478.734863 
	C220.024887,460.585510 214.507523,444.569611 200.077576,432.668243 
	C187.465302,422.265991 172.707565,418.813202 156.656326,421.822998 
	C144.823166,424.041840 134.939453,429.630157 127.171646,439.184601 
	C122.130684,445.385071 118.142540,451.810455 116.301880,460.239410 
	C116.184158,461.877014 116.330414,463.587067 115.904053,465.139923 
	C113.803360,472.790894 115.539444,480.023865 118.001465,487.953918 
M907.029297,610.923401 
	C905.473938,619.899231 913.688843,627.173096 922.888062,625.997498 
	C929.102600,625.203369 934.349854,619.113586 933.995605,612.625061 
	C933.605530,605.480103 928.367432,600.274536 921.913757,599.969299 
	C914.254211,599.607117 909.558044,603.119751 907.029297,610.923401 
M401.023315,527.484741 
	C393.936340,532.192993 393.918732,542.001709 401.690033,548.154419 
	C406.242676,551.758789 414.312256,550.997742 418.960968,546.479492 
	C422.225891,543.306213 423.117859,534.856567 420.549561,530.984619 
	C416.508057,524.891663 409.099335,521.444946 401.023315,527.484741 
z"/>
<path fill="#EE920C" opacity="1.000000" stroke="none" 
	d="
M181.961121,521.470825 
	C188.641312,528.591553 195.321503,535.712280 202.524231,543.389954 
	C229.917145,514.816711 256.387817,487.205475 283.749390,458.664917 
	C283.749390,516.040100 283.749390,571.779602 283.749390,627.973083 
	C275.376160,627.973083 267.253693,627.984436 259.131287,627.967896 
	C255.462082,627.960449 256.026367,625.220337 256.022491,622.955017 
	C255.997757,608.456177 256.006348,593.957397 256.005463,579.458557 
	C256.004517,564.135742 256.005249,548.812866 256.005249,532.110840 
	C253.758789,533.639160 252.101486,534.407959 250.913589,535.632202 
	C242.269684,544.540527 233.705048,553.526062 225.145859,562.516235 
	C218.642731,569.346741 212.053741,576.103577 205.782867,583.142517 
	C203.805237,585.362427 202.656601,585.328552 200.817917,583.349548 
	C191.828705,573.674622 182.831894,564.005981 173.752731,554.415649 
	C169.417145,549.835938 164.711838,545.597961 160.495132,540.915955 
	C153.724930,533.398560 147.221298,525.641113 140.777710,517.750732 
	C154.221893,522.969849 167.873001,524.486450 181.961121,521.470825 
z"/>
<path fill="#0E9DDC" opacity="1.000000" stroke="none" 
	d="
M182.186462,521.232727 
	C167.873001,524.486450 154.221893,522.969849 140.475342,517.466003 
	C136.124329,513.560486 131.690247,510.111755 128.512634,505.748138 
	C124.476059,500.204712 121.458435,493.919373 118.023224,487.124725 
	C117.712921,477.466919 117.380859,468.638336 117.048798,459.809723 
	C118.142540,451.810455 122.130684,445.385071 127.171646,439.184601 
	C134.939453,429.630157 144.823166,424.041840 156.656326,421.822998 
	C172.707565,418.813202 187.465302,422.265991 200.077576,432.668243 
	C214.507523,444.569611 220.024887,460.585510 217.812180,478.734863 
	C215.882309,494.564270 207.556183,506.957764 193.507812,515.073059 
	C189.879623,517.168945 186.114182,519.027222 182.186462,521.232727 
M139.426270,468.106079 
	C139.288834,468.577118 139.065140,469.041229 139.026489,469.520233 
	C137.829147,484.359863 151.804489,501.651520 171.661026,498.239563 
	C188.679718,495.315216 197.619934,477.749573 192.930740,463.142731 
	C188.862152,450.469086 174.321732,442.123749 161.182938,445.055939 
	C150.567596,447.425018 139.635056,458.397583 139.426270,468.106079 
z"/>
<path fill="#202020" opacity="1.000000" stroke="none" 
	d="
M747.004089,626.965210 
	C741.884705,627.138916 736.765381,627.312683 731.316711,626.762756 
	C730.987427,607.639771 730.987427,589.240417 730.987427,570.841125 
	C730.105408,570.742615 729.223328,570.644104 728.341309,570.545654 
	C727.563782,574.886780 726.786316,579.227966 726.008789,583.569092 
	C726.008789,583.569092 726.121216,583.625610 725.733032,583.855957 
	C725.229065,584.865540 725.113281,585.644836 724.997437,586.424072 
	C721.495239,599.057068 717.918030,611.670044 714.526001,624.332520 
	C713.070679,629.765259 708.839111,627.505981 705.548340,627.948120 
	C701.958862,628.430359 700.734863,626.408508 699.868713,623.257324 
	C695.484497,607.307007 690.901123,591.411438 686.062866,574.898071 
	C685.115784,575.374207 683.961853,576.443481 683.950623,577.524536 
	C683.779419,594.055786 683.757385,610.588684 683.700623,627.121155 
	C678.345398,627.268127 672.990234,627.415100 667.331909,626.824219 
	C666.999023,596.736511 666.969177,567.386658 666.939270,538.036865 
	C673.099121,538.005554 679.264526,538.121155 685.416565,537.885864 
	C688.893738,537.752869 690.334229,539.115356 691.226318,542.461365 
	C696.187134,561.066956 701.396484,579.606201 706.785095,599.125793 
	C707.796631,597.681152 708.631042,596.962769 708.865845,596.084106 
	C713.274048,579.585388 717.614380,563.068542 721.960022,546.553162 
	C722.625671,544.023499 723.247375,541.482239 724.376831,538.607788 
	C730.683289,538.224243 736.507446,538.312134 742.319580,538.086975 
	C746.090088,537.940918 747.133789,539.542908 747.117493,543.137329 
	C746.990967,571.079529 747.021912,599.022522 747.004089,626.965210 
z"/>
<path fill="#202021" opacity="1.000000" stroke="none" 
	d="
M867.194824,598.089539 
	C861.966797,593.168762 855.588013,592.435242 848.036987,593.299805 
	C847.063904,604.741882 846.893982,615.929260 846.724060,627.116577 
	C841.361206,627.253052 835.998352,627.389465 830.331787,626.793457 
	C830.003113,597.384033 829.978149,568.707153 830.042114,539.683472 
	C830.077393,538.870605 830.023804,538.404541 829.970154,537.938416 
	C829.970154,537.938416 829.996399,537.993103 830.433960,538.066406 
	C841.589233,538.105896 852.306824,538.072144 863.024475,538.038330 
	C867.227661,539.934204 871.529541,541.640259 875.615051,543.762573 
	C886.577881,549.457397 889.328674,575.059265 876.768127,582.235962 
	C875.774170,582.803894 874.804810,583.414734 873.071838,584.458801 
	C883.907837,590.119995 886.089294,598.600769 886.125305,608.514343 
	C886.147644,614.666138 887.470947,620.813232 888.306946,627.766541 
	C883.941101,627.766541 878.733521,627.766541 872.887939,627.406494 
	C871.144104,622.285217 869.829712,617.560425 868.991272,612.752686 
	C868.146301,607.907898 867.774170,602.980652 867.194824,598.089539 
M847.943909,553.942993 
	C847.943909,553.942993 848.069946,553.943604 847.285461,554.351318 
	C847.131348,560.135742 846.887878,565.920044 846.885864,571.704529 
	C846.885376,573.151794 847.662170,574.599304 847.955444,576.044556 
	C847.955444,576.044556 847.955200,575.918213 848.252625,576.752930 
	C852.692017,576.589172 857.131348,576.425354 862.197754,575.863770 
	C866.410645,572.837830 869.000122,568.891052 867.522583,563.621277 
	C866.156616,558.749268 863.864624,554.302795 857.281921,553.292786 
	C854.168030,553.551514 851.054199,553.810242 847.943909,553.942993 
z"/>
<path fill="#202020" opacity="1.000000" stroke="none" 
	d="
M778.074829,610.680115 
	C777.041809,615.548645 776.087769,620.436462 774.903625,625.267944 
	C774.687866,626.148193 773.554077,627.427734 772.807007,627.453613 
	C767.399963,627.641357 761.983521,627.554382 755.928345,627.554382 
	C756.664978,624.412415 757.173218,621.853882 757.866760,619.346558 
	C764.905090,593.902588 772.039917,568.485107 778.962952,543.009949 
	C780.010803,539.154053 781.683289,537.717957 785.822266,537.854797 
	C802.715820,538.413452 798.354858,535.263489 803.150818,551.709900 
	C809.715210,574.221008 815.773926,596.879639 822.045044,619.476135 
	C822.444824,620.916626 822.736206,622.390930 823.203064,623.808289 
	C824.137817,626.646484 823.053650,627.925781 820.184509,627.946350 
	C819.851318,627.948730 819.517578,627.969482 819.184937,627.958191 
	C802.530823,627.392578 806.661377,631.593384 801.931763,612.126831 
	C801.564148,610.950378 801.242126,610.465332 800.920105,609.980225 
	C800.725952,609.976929 800.531860,609.973633 799.715515,609.723145 
	C793.708740,609.400513 788.321838,609.211426 782.940857,609.318726 
	C781.310425,609.351257 779.696411,610.203369 778.074829,610.680115 
M785.484375,594.192993 
	C785.785095,594.128723 786.085876,594.064392 786.816345,594.002319 
	C786.816345,594.002319 787.229553,594.120239 787.892334,594.471863 
	C789.513794,594.561707 791.134583,594.669006 792.756897,594.738159 
	C796.943420,594.916748 798.162415,593.161743 796.054993,588.556274 
	C794.133362,581.788635 792.211670,575.020996 790.290039,568.253357 
	C789.925964,568.362366 789.561951,568.471375 789.197937,568.580322 
	C787.320251,575.543945 785.442566,582.507507 783.112366,589.806946 
	C781.432556,593.248413 781.547302,593.629333 784.483154,593.913086 
	C784.483154,593.913086 784.582336,593.999207 785.484375,594.192993 
z"/>
<path fill="#202021" opacity="1.000000" stroke="none" 
	d="
M448.856354,540.766602 
	C452.490479,549.277832 456.124573,557.789001 460.318726,567.611877 
	C462.805695,561.938538 464.884674,557.245056 466.921753,552.533508 
	C468.568787,548.724121 470.021973,544.821716 471.863739,541.110718 
	C472.491547,539.845764 473.995300,538.224854 475.175964,538.159485 
	C480.772827,537.849487 486.396332,538.021057 492.856934,538.021057 
	C491.292145,541.564209 490.153107,544.411194 488.802551,547.153992 
	C483.491425,557.940063 478.022003,568.649902 472.870911,579.511047 
	C472.186310,580.954590 472.447021,583.377014 473.196472,584.885986 
	C479.180298,596.934387 485.399750,608.865540 491.513641,620.849670 
	C492.478729,622.741394 493.275848,624.718811 494.682922,627.835754 
	C487.713776,627.835754 481.624268,628.133423 475.602997,627.624207 
	C474.118317,627.498657 472.377716,624.961487 471.575439,623.166199 
	C468.463470,616.202454 465.702148,609.082520 462.758575,602.042358 
	C462.271729,600.878052 461.526245,599.821899 460.327118,597.702820 
	C458.081055,602.733337 456.224884,606.861511 454.397888,611.002686 
	C453.928284,612.067139 453.529053,613.164368 453.134064,614.259766 
	C447.834259,628.957153 444.563873,630.712097 428.050354,627.175842 
	C428.697876,625.338623 429.142883,623.494751 429.964783,621.837769 
	C435.649811,610.376648 441.579254,599.032410 447.015045,587.455627 
	C448.135498,585.069336 448.552185,581.387268 447.515259,579.113098 
	C441.662598,566.277405 435.267700,553.688843 429.149475,540.274231 
	C430.702179,539.062805 432.147308,538.254578 433.626740,538.186096 
	C438.428894,537.963684 443.243561,538.012268 448.053436,537.956543 
	C448.053436,537.956543 448.004913,537.988953 447.872437,538.256104 
	C448.112122,539.271057 448.484222,540.018860 448.856354,540.766602 
z"/>
<path fill="#202021" opacity="1.000000" stroke="none" 
	d="
M331.022430,540.800842 
	C330.951660,540.220520 330.880890,539.640198 331.344055,538.729614 
	C343.272156,538.300781 354.666290,538.202209 366.060425,538.103638 
	C376.868042,540.512512 384.703339,546.323547 388.275909,557.203857 
	C394.873505,577.296753 381.644989,597.796021 359.515625,596.998962 
	C356.357147,596.885193 353.191193,596.978821 349.202850,597.212769 
	C348.247650,607.353943 348.118286,617.258789 347.988922,627.163696 
	C342.551056,627.326111 337.113190,627.488586 331.424683,626.929810 
	C331.200226,618.881714 331.264771,611.554810 331.245300,604.228088 
	C331.189148,583.085632 331.099121,561.943237 331.022430,540.800842 
M349.400146,580.703796 
	C354.229309,580.489624 359.058502,580.275391 364.549622,579.872070 
	C366.174652,578.603088 368.289856,577.649475 369.342987,576.012634 
	C375.032684,567.169250 372.684906,559.340820 362.489166,553.340393 
	C357.985168,553.580872 353.481171,553.821289 348.976105,553.977356 
	C348.976105,553.977356 349.060425,553.975037 348.334961,554.444580 
	C348.194763,561.153259 347.967041,567.861938 347.972046,574.570496 
	C347.973389,576.389343 348.677979,578.207703 348.975281,580.022766 
	C348.975281,580.022766 348.977448,579.938232 349.400146,580.703796 
z"/>
<path fill="#202020" opacity="1.000000" stroke="none" 
	d="
M501.027405,538.704895 
	C501.027374,538.704895 500.915771,538.419861 501.392883,538.343811 
	C516.332153,538.214233 530.794922,538.219055 545.255981,538.063110 
	C548.575500,538.027344 550.190247,539.001831 549.971741,542.598938 
	C549.760620,546.073669 549.981689,549.574585 550.012878,553.064026 
	C550.012878,553.064026 549.998840,552.995117 549.560181,552.986206 
	C540.570496,552.990479 532.018799,552.956665 523.468811,553.061523 
	C521.974548,553.079773 520.487366,553.681274 518.996887,554.013428 
	C519.003601,560.043030 519.010376,566.072693 519.351929,572.807129 
	C526.172852,573.602112 532.663696,573.878601 539.143250,573.712646 
	C543.030090,573.613098 544.750671,574.955994 544.338379,578.889648 
	C544.200317,580.207275 544.191467,581.565674 544.340271,582.880981 
	C544.810608,587.038452 543.021606,588.377563 538.903137,588.301758 
	C532.289429,588.180115 525.664917,588.647400 519.045044,588.865845 
	C519.036133,595.913696 519.027222,602.961670 519.222290,610.847900 
	C529.596741,611.757996 539.767090,611.829773 549.937500,611.901550 
	C550.125061,616.724365 550.312622,621.547180 549.767700,626.683899 
	C532.993103,626.995789 516.951050,626.993713 500.908936,626.991638 
	C500.908936,626.991638 501.003448,626.996460 501.105438,626.578979 
	C501.224701,620.829956 501.269409,615.498413 501.254547,610.166992 
	C501.188110,586.346313 501.104675,562.525574 501.027405,538.704895 
z"/>
<path fill="#089CDF" opacity="1.000000" stroke="none" 
	d="
M145.999115,626.690674 
	C143.628067,626.742981 141.257019,626.795349 138.172333,626.510620 
	C134.887878,625.792969 132.323441,625.159485 129.744720,625.094666 
	C126.386276,625.010193 124.959023,623.585449 124.962074,620.244751 
	C124.988602,591.200989 124.979652,562.157227 124.919235,533.113586 
	C124.913071,530.148926 126.116035,528.789856 129.060944,528.973389 
	C129.060944,528.973389 129.004761,528.995300 129.021973,529.340454 
	C129.459900,533.261353 131.552643,534.926392 135.070129,534.963379 
	C135.070129,534.963379 135.011658,534.990173 135.124420,535.190308 
	C135.513321,535.590088 135.789474,535.789734 136.065613,535.989380 
	C136.065628,535.989380 136.004196,535.986389 136.005798,536.337097 
	C137.350403,538.122070 138.693390,539.556396 140.036377,540.990662 
	C140.036377,540.990662 139.991898,541.010315 140.116425,541.207947 
	C140.510010,541.605652 140.779068,541.805664 141.048111,542.005737 
	C141.048111,542.005737 140.992813,542.008179 141.019775,542.348083 
	C142.116898,543.477600 143.187042,544.267273 144.257187,545.056885 
	C144.532013,545.034912 144.739182,545.142822 144.927444,545.945862 
	C146.999207,548.673401 149.022232,550.835754 151.045242,552.998047 
	C151.045242,552.998047 150.994385,553.009216 150.970444,553.454590 
	C150.948090,572.679810 151.293915,591.469788 150.739426,610.233154 
	C150.575180,615.791382 152.632553,622.706787 145.999115,626.690674 
z"/>
<path fill="#202020" opacity="1.000000" stroke="none" 
	d="
M560.945435,538.032471 
	C566.413696,538.169861 571.882019,538.307251 577.632202,539.176636 
	C577.908630,562.142029 577.880676,584.375427 577.947937,606.608521 
	C577.952454,608.092407 578.679382,609.573975 579.070374,611.056641 
	C579.070374,611.056641 578.943176,611.059021 579.173828,611.362183 
	C589.930054,611.766357 600.455688,611.867371 610.981323,611.968384 
	C611.229431,616.755615 611.477478,621.542908 610.989441,626.606079 
	C593.810913,626.914246 577.368469,626.946472 560.926025,626.978760 
	C560.926025,626.978760 561.022339,626.979370 560.998657,626.554504 
	C560.965149,596.763916 560.955261,567.398193 560.945435,538.032471 
z"/>
<path fill="#202021" opacity="1.000000" stroke="none" 
	d="
M947.959106,537.946716 
	C948.278992,542.331543 948.879639,546.727234 948.710266,551.093140 
	C948.670654,552.113892 946.074463,553.754395 944.562134,553.866882 
	C939.651855,554.231995 934.698792,554.020447 929.074158,554.407227 
	C928.251526,556.090637 928.004150,557.397400 928.000244,558.704895 
	C927.968384,569.325073 927.780212,579.951111 928.077637,590.563049 
	C928.203064,595.036255 926.706177,596.459595 922.374390,596.073608 
	C918.593079,595.736816 914.756042,596.024536 910.943665,596.036316 
	C910.943665,596.036316 911.006042,596.019531 911.104858,595.586548 
	C911.171936,582.994202 911.177185,570.834534 911.061951,558.675964 
	C911.047424,557.143066 910.399292,555.616211 910.044739,554.086548 
	C905.458679,554.074829 900.862244,553.867065 896.289795,554.110901 
	C892.326355,554.322205 890.482483,553.075745 890.849731,548.847595 
	C891.133545,545.580750 890.909546,542.269836 891.406616,538.576721 
	C910.587708,538.098877 929.273376,538.022766 947.959106,537.946716 
z"/>
<path fill="#202020" opacity="1.000000" stroke="none" 
	d="
M417.215942,627.794983 
	C412.037445,627.693481 406.858978,627.592041 401.347687,626.784912 
	C401.010284,602.373596 401.005707,578.667969 401.001129,554.962402 
	C406.046570,554.635132 411.092041,554.307861 416.629944,554.484680 
	C417.153595,579.257507 417.184753,603.526245 417.215942,627.794983 
z"/>
<path fill="#3AA7D9" opacity="1.000000" stroke="none" 
	d="
M907.043213,610.507202 
	C909.558044,603.119751 914.254211,599.607117 921.913757,599.969299 
	C928.367432,600.274536 933.605530,605.480103 933.995605,612.625061 
	C934.349854,619.113586 929.102600,625.203369 922.888062,625.997498 
	C913.688843,627.173096 905.473938,619.899231 907.043213,610.507202 
z"/>
<path fill="#EE920C" opacity="1.000000" stroke="none" 
	d="
M401.304993,527.217163 
	C409.099335,521.444946 416.508057,524.891663 420.549561,530.984619 
	C423.117859,534.856567 422.225891,543.306213 418.960968,546.479492 
	C414.312256,550.997742 406.242676,551.758789 401.690033,548.154419 
	C393.918732,542.001709 393.936340,532.192993 401.304993,527.217163 
z"/>
<path fill="#202020" opacity="1.000000" stroke="none" 
	d="
M621.974060,595.960144 
	C621.936829,591.440857 621.899536,586.921509 622.356567,581.853516 
	C632.589600,581.209717 642.328491,581.114563 652.067322,581.019409 
	C652.067322,581.019409 651.996582,581.006653 651.967285,581.441162 
	C651.956421,585.182312 651.807800,588.500732 652.040405,591.792297 
	C652.272583,595.077942 650.954773,596.113647 647.761047,596.051575 
	C639.168030,595.884583 630.570068,595.973083 621.974060,595.960144 
z"/>
<path fill="#3AA7D9" opacity="1.000000" stroke="none" 
	d="
M128.937744,528.651367 
	C126.116035,528.789856 124.913071,530.148926 124.919235,533.113586 
	C124.979652,562.157227 124.988602,591.200989 124.962074,620.244751 
	C124.959023,623.585449 126.386276,625.010193 129.744720,625.094666 
	C132.323441,625.159485 134.887878,625.792969 137.735123,626.426575 
	C133.225708,626.679626 128.439850,626.679626 123.448624,626.679626 
	C123.448624,592.151611 123.448624,557.660156 123.448624,522.702148 
	C125.531052,524.885925 127.172798,526.607605 128.937744,528.651367 
z"/>
<path fill="#666768" opacity="1.000000" stroke="none" 
	d="
M747.345703,626.713623 
	C747.021912,599.022522 746.990967,571.079529 747.117493,543.137329 
	C747.133789,539.542908 746.090088,537.940918 742.319580,538.086975 
	C736.507446,538.312134 730.683289,538.224243 724.392944,538.203857 
	C725.048401,537.743042 726.169922,537.023315 727.302673,537.005249 
	C734.062561,536.897705 740.825012,536.952026 747.937805,536.952026 
	C747.937805,546.369568 747.962158,555.293213 747.932861,564.216736 
	C747.864807,584.965210 747.770874,605.713623 747.345703,626.713623 
z"/>
<path fill="#3AA7D9" opacity="1.000000" stroke="none" 
	d="
M146.434052,626.768188 
	C152.632553,622.706787 150.575180,615.791382 150.739426,610.233154 
	C151.293915,591.469788 150.948090,572.679810 150.976807,553.429321 
	C151.334747,553.971191 151.946182,554.983093 151.948380,555.996277 
	C151.998001,578.966309 151.982468,601.936340 151.965729,624.906433 
	C151.965378,625.383728 151.805923,625.860962 151.630051,626.845825 
	C150.060394,626.845825 148.464706,626.845825 146.434052,626.768188 
z"/>
<path fill="#969696" opacity="1.000000" stroke="none" 
	d="
M560.563965,538.236938 
	C560.955261,567.398193 560.965149,596.763916 560.998962,626.602661 
	C560.689392,626.226318 560.064392,625.376953 560.064453,624.527588 
	C560.067078,595.832153 560.129089,567.136780 560.563965,538.236938 
z"/>
<path fill="#969696" opacity="1.000000" stroke="none" 
	d="
M666.566650,538.253418 
	C666.969177,567.386658 666.999023,596.736511 667.016724,626.556641 
	C666.680481,626.167969 666.073242,625.308899 666.073364,624.449951 
	C666.077759,595.789978 666.140137,567.130066 666.566650,538.253418 
z"/>
<path fill="#969696" opacity="1.000000" stroke="none" 
	d="
M500.659424,538.967651 
	C501.104675,562.525574 501.188110,586.346313 501.254547,610.166992 
	C501.269409,615.498413 501.224701,620.829956 501.103180,626.626221 
	C500.650116,626.085205 499.998322,625.079834 499.996643,624.073486 
	C499.949860,596.276306 499.967560,568.479004 499.990509,540.681763 
	C499.990906,540.197876 500.186768,539.714172 500.659424,538.967651 
z"/>
<path fill="#969696" opacity="1.000000" stroke="none" 
	d="
M829.953247,540.030273 
	C829.978149,568.707153 830.003113,597.384033 830.013855,626.529297 
	C829.680786,625.475952 829.086975,623.954895 829.083984,622.432617 
	C829.030762,595.282043 829.049133,568.131470 829.294128,540.495850 
	C829.536072,540.010925 829.953247,540.030273 829.953247,540.030273 
z"/>
<path fill="#969696" opacity="1.000000" stroke="none" 
	d="
M330.639832,541.034851 
	C331.099121,561.943237 331.189148,583.085632 331.245300,604.228088 
	C331.264771,611.554810 331.200226,618.881714 331.096405,626.682129 
	C330.662262,625.977356 329.997131,624.799744 329.994568,623.620605 
	C329.936768,596.822449 329.949249,570.024109 329.965240,543.225830 
	C329.965637,542.573425 330.155670,541.921204 330.639832,541.034851 
z"/>
<path fill="#666768" opacity="1.000000" stroke="none" 
	d="
M519.510376,588.858215 
	C525.664917,588.647400 532.289429,588.180115 538.903137,588.301758 
	C543.021606,588.377563 544.810608,587.038452 544.340271,582.880981 
	C544.191467,581.565674 544.200317,580.207275 544.338379,578.889648 
	C544.750671,574.955994 543.030090,573.613098 539.143250,573.712646 
	C532.663696,573.878601 526.172852,573.602112 519.350952,573.278198 
	C526.490417,573.087463 533.969055,573.275208 541.439148,573.099121 
	C544.251526,573.032837 545.306152,574.229004 545.664795,576.661499 
	C545.688965,576.825562 545.691467,576.992615 545.712952,577.157166 
	C547.180542,588.388672 546.787048,588.832275 535.426392,588.830444 
	C530.276184,588.829590 525.125916,588.843384 519.510376,588.858215 
z"/>
<path fill="#666768" opacity="1.000000" stroke="none" 
	d="
M726.326294,583.307068 
	C726.786316,579.227966 727.563782,574.886780 728.341309,570.545654 
	C729.223328,570.644104 730.105408,570.742615 730.987427,570.841125 
	C730.987427,589.240417 730.987427,607.639771 730.992065,626.505737 
	C730.670898,625.265198 730.070312,623.559265 730.062256,621.850525 
	C729.988953,606.376892 730.019287,590.902832 728.981384,575.143555 
	C728.202148,577.777405 727.422974,580.411194 726.326294,583.307068 
z"/>
<path fill="#666768" opacity="1.000000" stroke="none" 
	d="
M417.466400,627.484619 
	C417.184753,603.526245 417.153595,579.257507 417.099670,554.524414 
	C417.317017,554.967102 417.766296,555.873962 417.766754,556.781067 
	C417.778595,580.245483 417.743683,603.709900 417.466400,627.484619 
z"/>
<path fill="#969696" opacity="1.000000" stroke="none" 
	d="
M579.041138,610.584717 
	C578.679382,609.573975 577.952454,608.092407 577.947937,606.608521 
	C577.880676,584.375427 577.908630,562.142029 577.954712,539.439575 
	C578.347900,540.459534 579.004089,541.947876 579.007629,543.437744 
	C579.059753,565.662598 579.025696,587.887756 579.041138,610.584717 
z"/>
<path fill="#666768" opacity="1.000000" stroke="none" 
	d="
M400.651489,555.215576 
	C401.005707,578.667969 401.010284,602.373596 401.008423,626.549072 
	C400.683685,626.507568 400.086365,625.995544 400.087219,625.484619 
	C400.125916,602.145935 400.216919,578.807373 400.651489,555.215576 
z"/>
<path fill="#666768" opacity="1.000000" stroke="none" 
	d="
M550.371399,552.819092 
	C549.981689,549.574585 549.760620,546.073669 549.971741,542.598938 
	C550.190247,539.001831 548.575500,538.027344 545.255981,538.063110 
	C530.794922,538.219055 516.332153,538.214233 501.400940,538.190918 
	C501.415833,537.752014 501.898651,537.075134 502.383759,537.073486 
	C518.430420,537.018311 534.477356,537.027832 550.729919,537.027832 
	C550.729919,542.426514 550.729919,547.500305 550.371399,552.819092 
z"/>
<path fill="#666768" opacity="1.000000" stroke="none" 
	d="
M911.172607,596.406738 
	C914.756042,596.024536 918.593079,595.736816 922.374390,596.073608 
	C926.706177,596.459595 928.203064,595.036255 928.077637,590.563049 
	C927.780212,579.951111 927.968384,569.325073 928.000244,558.704895 
	C928.004150,557.397400 928.251526,556.090637 928.593994,554.433960 
	C928.801880,568.194031 928.801880,582.303711 928.801880,596.777222 
	C922.908264,596.777222 917.154907,596.777222 911.172607,596.406738 
z"/>
<path fill="#666768" opacity="1.000000" stroke="none" 
	d="
M947.720764,537.592896 
	C929.273376,538.022766 910.587708,538.098877 891.434143,538.113159 
	C891.626526,537.696716 892.287292,537.031494 892.946960,537.032471 
	C911.125488,537.059937 929.303955,537.155151 947.720764,537.592896 
z"/>
<path fill="#969696" opacity="1.000000" stroke="none" 
	d="
M684.131958,626.954468 
	C683.757385,610.588684 683.779419,594.055786 683.950623,577.524536 
	C683.961853,576.443481 685.115784,575.374207 685.813110,574.621826 
	C685.598999,576.479126 685.066345,578.012817 685.058899,579.549011 
	C684.991028,593.495605 685.030884,607.442688 684.991882,621.389465 
	C684.986877,623.189331 684.712708,624.988342 684.131958,626.954468 
z"/>
<path fill="#969696" opacity="1.000000" stroke="none" 
	d="
M561.143799,627.361511 
	C577.368469,626.946472 593.810913,626.914246 610.734497,626.929077 
	C610.523010,627.305359 609.829956,627.922485 609.137634,627.921631 
	C593.212280,627.903198 577.286926,627.817444 561.143799,627.361511 
z"/>
<path fill="#969696" opacity="1.000000" stroke="none" 
	d="
M501.113770,627.384888 
	C516.951050,626.993713 532.993103,626.995789 549.501831,627.001831 
	C549.300903,627.331543 548.633118,627.941833 547.965942,627.941223 
	C532.416809,627.926880 516.867676,627.846436 501.113770,627.384888 
z"/>
<path fill="#666768" opacity="1.000000" stroke="none" 
	d="
M622.182922,596.343750 
	C630.570068,595.973083 639.168030,595.884583 647.761047,596.051575 
	C650.954773,596.113647 652.272583,595.077942 652.040405,591.792297 
	C651.807800,588.500732 651.956421,585.182312 651.973389,581.405762 
	C652.508728,586.047913 653.008606,591.160095 653.553101,596.727356 
	C642.713135,596.727356 632.552429,596.727356 622.182922,596.343750 
z"/>
<path fill="#969696" opacity="1.000000" stroke="none" 
	d="
M910.042236,554.549561 
	C910.399292,555.616211 911.047424,557.143066 911.061951,558.675964 
	C911.177185,570.834534 911.171936,582.994202 911.104126,595.618896 
	C910.660706,594.763733 910.024231,593.444641 910.018433,592.122742 
	C909.963928,579.752930 910.017456,567.382751 910.042236,554.549561 
z"/>
<path fill="#3AA7D9" opacity="1.000000" stroke="none" 
	d="
M116.675339,460.024567 
	C117.380859,468.638336 117.712921,477.466919 118.037140,486.750519 
	C115.539444,480.023865 113.803360,472.790894 115.904053,465.139923 
	C116.330414,463.587067 116.184158,461.877014 116.675339,460.024567 
z"/>
<path fill="#666768" opacity="1.000000" stroke="none" 
	d="
M867.174194,598.522949 
	C867.774170,602.980652 868.146301,607.907898 868.991272,612.752686 
	C869.829712,617.560425 871.144104,622.285217 872.400635,627.315552 
	C870.998047,625.187256 868.389954,622.912964 868.092834,620.368835 
	C867.266174,613.291382 867.399353,606.101685 867.174194,598.522949 
z"/>
<path fill="#666768" opacity="1.000000" stroke="none" 
	d="
M365.907043,537.679749 
	C354.666290,538.202209 343.272156,538.300781 331.405762,538.443298 
	C331.637665,537.991150 332.341553,537.063965 333.045990,537.063538 
	C343.948517,537.056763 354.851105,537.170227 365.907043,537.679749 
z"/>
<path fill="#969696" opacity="1.000000" stroke="none" 
	d="
M847.153381,626.950317 
	C846.893982,615.929260 847.063904,604.741882 847.571533,593.292603 
	C847.800415,604.281738 847.691589,615.532898 847.153381,626.950317 
z"/>
<path fill="#666768" opacity="1.000000" stroke="none" 
	d="
M862.875610,537.616089 
	C852.306824,538.072144 841.589233,538.105896 830.404785,538.058228 
	C830.795837,537.648804 831.653748,537.036621 832.511597,537.036560 
	C842.583313,537.035828 852.654968,537.127014 862.875610,537.616089 
z"/>
<path fill="#969696" opacity="1.000000" stroke="none" 
	d="
M610.771729,611.589233 
	C600.455688,611.867371 589.930054,611.766357 579.171082,611.298706 
	C589.479187,611.024719 600.020630,611.117432 610.771729,611.589233 
z"/>
<path fill="#969696" opacity="1.000000" stroke="none" 
	d="
M549.703430,611.546631 
	C539.767090,611.829773 529.596741,611.757996 519.205200,611.312378 
	C529.145813,611.022949 539.307556,611.107361 549.703430,611.546631 
z"/>
<path fill="#969696" opacity="1.000000" stroke="none" 
	d="
M519.465576,554.000366 
	C520.487366,553.681274 521.974548,553.079773 523.468811,553.061523 
	C532.018799,552.956665 540.570496,552.990479 549.594666,552.979065 
	C548.409485,553.302063 546.754456,553.879761 545.092346,553.901184 
	C536.707397,554.009521 528.320496,553.972961 519.465576,554.000366 
z"/>
<path fill="#666768" opacity="1.000000" stroke="none" 
	d="
M348.348389,626.905945 
	C348.118286,617.258789 348.247650,607.353943 348.741699,597.214600 
	C348.973602,606.869446 348.840759,616.758850 348.348389,626.905945 
z"/>
<path fill="#969696" opacity="1.000000" stroke="none" 
	d="
M651.820557,580.660889 
	C642.328491,581.114563 632.589600,581.209717 622.388855,581.422363 
	C622.790649,581.049072 623.653076,580.135315 624.518311,580.132690 
	C633.536560,580.105164 642.555298,580.224060 651.820557,580.660889 
z"/>
<path fill="#666768" opacity="1.000000" stroke="none" 
	d="
M778.449341,610.510010 
	C779.696411,610.203369 781.310425,609.351257 782.940857,609.318726 
	C788.321838,609.211426 793.708740,609.400513 799.428589,609.673218 
	C792.783813,610.027039 785.803833,610.183411 778.449341,610.510010 
z"/>
<path fill="#666768" opacity="1.000000" stroke="none" 
	d="
M447.828247,537.583008 
	C443.243561,538.012268 438.428894,537.963684 433.626740,538.186096 
	C432.147308,538.254578 430.702179,539.062805 429.125183,539.931946 
	C428.646942,539.382141 428.284851,538.432739 427.818268,537.209473 
	C434.801514,537.209473 441.202271,537.209473 447.828247,537.583008 
z"/>
<path fill="#3AA7D9" opacity="1.000000" stroke="none" 
	d="
M151.014435,552.646606 
	C149.022232,550.835754 146.999207,548.673401 144.961456,546.126221 
	C146.959030,547.925964 148.971329,550.110535 151.014435,552.646606 
z"/>
<path fill="#3AA7D9" opacity="1.000000" stroke="none" 
	d="
M134.956863,534.649963 
	C131.552643,534.926392 129.459900,533.261353 129.030975,529.311646 
	C130.963043,530.737305 132.903320,532.536926 134.956863,534.649963 
z"/>
<path fill="#3AA7D9" opacity="1.000000" stroke="none" 
	d="
M140.008575,540.632690 
	C138.693390,539.556396 137.350403,538.122070 136.024902,536.312988 
	C137.355194,537.383667 138.667999,538.829224 140.008575,540.632690 
z"/>
<path fill="#3AA7D9" opacity="1.000000" stroke="none" 
	d="
M144.098953,544.765259 
	C143.187042,544.267273 142.116898,543.477600 141.029373,542.322144 
	C141.988235,542.795410 142.964478,543.634460 144.098953,544.765259 
z"/>
<path fill="#666768" opacity="1.000000" stroke="none" 
	d="
M448.902283,540.429443 
	C448.484222,540.018860 448.112122,539.271057 447.898254,538.236694 
	C448.353760,538.664185 448.650970,539.378296 448.902283,540.429443 
z"/>
<path fill="#666768" opacity="1.000000" stroke="none" 
	d="
M725.329102,586.213867 
	C725.113281,585.644836 725.229065,584.865540 725.720093,583.917603 
	C725.950378,584.500427 725.805542,585.252075 725.329102,586.213867 
z"/>
<path fill="#666768" opacity="1.000000" stroke="none" 
	d="
M830.042114,539.683472 
	C829.953247,540.030273 829.536072,540.010925 829.328247,540.031616 
	C829.188293,539.413391 829.256165,538.774353 829.647095,538.036865 
	C830.023804,538.404541 830.077393,538.870605 830.042114,539.683472 
z"/>
<path fill="#666768" opacity="1.000000" stroke="none" 
	d="
M801.008789,610.268616 
	C801.242126,610.465332 801.564148,610.950378 801.944275,611.727783 
	C801.700684,611.532471 801.399048,611.044739 801.008789,610.268616 
z"/>
<path fill="#3AA7D9" opacity="1.000000" stroke="none" 
	d="
M136.007935,535.715088 
	C135.789474,535.789734 135.513321,535.590088 135.121155,535.158325 
	C135.320175,535.097717 135.635208,535.269287 136.007935,535.715088 
z"/>
<path fill="#3AA7D9" opacity="1.000000" stroke="none" 
	d="
M140.978973,541.741821 
	C140.779068,541.805664 140.510010,541.605652 140.117432,541.183655 
	C140.299210,541.133789 140.604507,541.305847 140.978973,541.741821 
z"/>
<path fill="#000000" opacity="1.000000" stroke="none" 
	d="
M139.677765,467.751434 
	C139.635056,458.397583 150.567596,447.425018 161.182938,445.055939 
	C174.321732,442.123749 188.862152,450.469086 192.930740,463.142731 
	C197.619934,477.749573 188.679718,495.315216 171.661026,498.239563 
	C151.804489,501.651520 137.829147,484.359863 139.026489,469.520233 
	C139.065140,469.041229 139.288834,468.577118 139.677765,467.751434 
z"/>
<path fill="#000000" opacity="1.000000" stroke="none" 
	d="
M857.803101,553.884827 
	C863.864624,554.302795 866.156616,558.749268 867.522583,563.621277 
	C869.000122,568.891052 866.410645,572.837830 861.449341,576.021729 
	C856.452332,576.092468 852.203796,576.005310 847.955200,575.918213 
	C847.955200,575.918213 847.955444,576.044556 847.990234,575.574219 
	C848.039978,568.050476 848.054932,560.997009 848.069946,553.943604 
	C848.069946,553.943604 847.943909,553.942993 848.392944,553.956787 
	C851.829041,553.942017 854.816040,553.913391 857.803101,553.884827 
z"/>
<path fill="#969696" opacity="1.000000" stroke="none" 
	d="
M847.677734,554.147461 
	C848.054932,560.997009 848.039978,568.050476 848.053345,575.575317 
	C847.662170,574.599304 846.885376,573.151794 846.885864,571.704529 
	C846.887878,565.920044 847.131348,560.135742 847.677734,554.147461 
z"/>
<path fill="#969696" opacity="1.000000" stroke="none" 
	d="
M848.103882,576.335571 
	C852.203796,576.005310 856.452332,576.092468 861.135864,576.220581 
	C857.131348,576.425354 852.692017,576.589172 848.103882,576.335571 
z"/>
<path fill="#969696" opacity="1.000000" stroke="none" 
	d="
M857.542480,553.588806 
	C854.816040,553.913391 851.829041,553.942017 848.391113,554.019775 
	C851.054199,553.810242 854.168030,553.551514 857.542480,553.588806 
z"/>
<path fill="#000000" opacity="1.000000" stroke="none" 
	d="
M787.229553,594.120239 
	C787.229553,594.120239 786.816345,594.002319 786.434570,593.708252 
	C785.562622,593.609131 785.072510,593.804199 784.582336,593.999268 
	C784.582336,593.999207 784.483154,593.913086 784.258911,593.640625 
	C783.878052,592.069153 783.721497,590.770142 783.564941,589.471130 
	C785.442566,582.507507 787.320251,575.543945 789.197937,568.580322 
	C789.561951,568.471375 789.925964,568.362366 790.290039,568.253357 
	C792.211670,575.020996 794.133362,581.788635 796.090454,589.346069 
	C795.411438,596.490173 790.527771,593.535095 787.229553,594.120239 
z"/>
<path fill="#666768" opacity="1.000000" stroke="none" 
	d="
M787.560913,594.296021 
	C790.527771,593.535095 795.411438,596.490173 796.174316,589.755005 
	C798.162415,593.161743 796.943420,594.916748 792.756897,594.738159 
	C791.134583,594.669006 789.513794,594.561707 787.560913,594.296021 
z"/>
<path fill="#666768" opacity="1.000000" stroke="none" 
	d="
M783.338623,589.639038 
	C783.721497,590.770142 783.878052,592.069153 784.193359,593.645996 
	C781.547302,593.629333 781.432556,593.248413 783.338623,589.639038 
z"/>
<path fill="#666768" opacity="1.000000" stroke="none" 
	d="
M785.033325,594.096130 
	C785.072510,593.804199 785.562622,593.609131 786.219666,593.707153 
	C786.085876,594.064392 785.785095,594.128723 785.033325,594.096130 
z"/>
<path fill="#000000" opacity="1.000000" stroke="none" 
	d="
M363.017700,554.008667 
	C372.684906,559.340820 375.032684,567.169250 369.342987,576.012634 
	C368.289856,577.649475 366.174652,578.603088 363.761353,579.940674 
	C358.307861,579.985657 353.642670,579.961914 348.977448,579.938232 
	C348.977448,579.938232 348.975281,580.022766 349.021545,579.553406 
	C349.065369,570.714355 349.062897,562.344727 349.060425,553.975037 
	C349.060425,553.975037 348.976105,553.977356 349.443176,554.039185 
	C354.279388,554.070190 358.648529,554.039429 363.017700,554.008667 
z"/>
<path fill="#666768" opacity="1.000000" stroke="none" 
	d="
M348.697693,554.209839 
	C349.062897,562.344727 349.065369,570.714355 349.063812,579.555176 
	C348.677979,578.207703 347.973389,576.389343 347.972046,574.570496 
	C347.967041,567.861938 348.194763,561.153259 348.697693,554.209839 
z"/>
<path fill="#666768" opacity="1.000000" stroke="none" 
	d="
M349.188782,580.320984 
	C353.642670,579.961914 358.307861,579.985657 363.430359,580.035278 
	C359.058502,580.275391 354.229309,580.489624 349.188782,580.320984 
z"/>
<path fill="#666768" opacity="1.000000" stroke="none" 
	d="
M362.753418,553.674561 
	C358.648529,554.039429 354.279388,554.070190 349.443695,554.081299 
	C353.481171,553.821289 357.985168,553.580872 362.753418,553.674561 
z"/>
</svg>